<svg xmlns="http://www.w3.org/2000/svg" width="14" height="13" viewBox="0 0 14 13"><path fill="#fff" d="M13.698 11.316l-3.48-3.262c.413-.77.67-1.645.67-2.583C10.89 2.45 8.45 0 5.442 0S-.005 2.45-.005 5.475c0 3.023 2.44 5.474 5.447 5.474 1.374 0 2.612-.528 3.57-1.37l3.37 3.158c.186.176.425.262.66.262.26 0 .517-.104.707-.31.362-.392.342-1.006-.05-1.374zM5.44 9.006c-1.937 0-3.513-1.584-3.513-3.53 0-1.95 1.576-3.533 3.514-3.533s3.514 1.584 3.514 3.532c0 1.947-1.575 3.53-3.513 3.53zM7.926 4.987h-2v-2h-1v2h-2v1h2v2h1v-2h2z"/></svg>